<svg width="24" height="24" viewBox="0 0 24 24" fill="none" xmlns="http://www.w3.org/2000/svg">
<path d="M11.9991 8.87647C10.2788 8.87647 8.87492 10.2804 8.87492 12.0007C8.87492 13.721 10.2788 15.1249 11.9991 15.1249C13.7194 15.1249 15.1234 13.721 15.1234 12.0007C15.1234 10.2804 13.7194 8.87647 11.9991 8.87647ZM21.3694 12.0007C21.3694 10.7069 21.3812 9.4249 21.3085 8.1335C21.2359 6.6335 20.8937 5.30225 19.7968 4.20537C18.6976 3.10615 17.3687 2.76631 15.8687 2.69365C14.5749 2.621 13.2929 2.63272 12.0015 2.63272C10.7077 2.63272 9.4257 2.621 8.13429 2.69365C6.63429 2.76631 5.30304 3.1085 4.20617 4.20537C3.10695 5.30459 2.7671 6.6335 2.69445 8.1335C2.62179 9.42725 2.63351 10.7093 2.63351 12.0007C2.63351 13.2921 2.62179 14.5765 2.69445 15.8679C2.7671 17.3679 3.10929 18.6991 4.20617 19.796C5.30538 20.8952 6.63429 21.2351 8.13429 21.3077C9.42804 21.3804 10.7101 21.3687 12.0015 21.3687C13.2952 21.3687 14.5773 21.3804 15.8687 21.3077C17.3687 21.2351 18.6999 20.8929 19.7968 19.796C20.896 18.6968 21.2359 17.3679 21.3085 15.8679C21.3835 14.5765 21.3694 13.2944 21.3694 12.0007ZM11.9991 16.8077C9.33898 16.8077 7.1921 14.6608 7.1921 12.0007C7.1921 9.34053 9.33898 7.19365 11.9991 7.19365C14.6593 7.19365 16.8062 9.34053 16.8062 12.0007C16.8062 14.6608 14.6593 16.8077 11.9991 16.8077ZM17.003 8.11943C16.3819 8.11943 15.8804 7.61787 15.8804 6.99678C15.8804 6.37568 16.3819 5.87412 17.003 5.87412C17.6241 5.87412 18.1257 6.37568 18.1257 6.99678C18.1259 7.14426 18.097 7.29033 18.0406 7.42662C17.9843 7.56291 17.9016 7.68674 17.7973 7.79103C17.693 7.89531 17.5692 7.978 17.4329 8.03436C17.2966 8.09071 17.1505 8.11962 17.003 8.11943Z" fill="black" fill-opacity="0.45"/>
</svg>
