<svg preserveAspectRatio="none" width="100%" height="100%" overflow="visible" style="display: block;" viewBox="0 0 9 14" fill="none" xmlns="http://www.w3.org/2000/svg">
<path id="Vector" d="M8.15096 6.21928L0.226759 0.03002C0.206052 0.0137183 0.181168 0.00358763 0.154964 0.000791115C0.128759 -0.0020054 0.102298 0.00264574 0.0786175 0.0142105C0.0549374 0.0257752 0.0349996 0.0437845 0.0210933 0.06617C0.00718711 0.0885554 -0.00012342 0.114409 1.57645e-06 0.140762V1.49955C1.57645e-06 1.58568 0.0404313 1.6683 0.107228 1.72104L6.43534 6.66225L0.107228 11.6035C0.0386735 11.6562 1.57645e-06 11.7388 1.57645e-06 11.8249V13.1837C1.57645e-06 13.3015 0.135353 13.3665 0.226759 13.2945L8.15096 7.10522C8.21831 7.05268 8.27279 6.98548 8.31027 6.90872C8.34774 6.83196 8.36722 6.74766 8.36722 6.66225C8.36722 6.57683 8.34774 6.49254 8.31027 6.41578C8.27279 6.33902 8.21831 6.27181 8.15096 6.21928Z" fill="var(--fill-0, black)" fill-opacity="0.88"/>
</svg>
