<svg preserveAspectRatio="none" width="100%" height="100%" overflow="visible" style="display: block;" viewBox="0 0 9 14" fill="none" xmlns="http://www.w3.org/2000/svg">
<path id="Vector" d="M8.36721 1.4997V0.140909C8.36721 0.0231359 8.23186 -0.0419032 8.14046 0.0301671L0.216236 6.21942C0.148909 6.27178 0.0944301 6.33883 0.0569554 6.41544C0.0194806 6.49206 0 6.57622 0 6.66151C0 6.74681 0.0194806 6.83097 0.0569554 6.90759C0.0944301 6.9842 0.148909 7.05125 0.216236 7.1036L8.14046 13.2929C8.23362 13.3649 8.36721 13.2999 8.36721 13.1821V11.8233C8.36721 11.7372 8.32678 11.6546 8.25999 11.6018L1.93186 6.66239L8.25999 1.72118C8.32678 1.66845 8.36721 1.58583 8.36721 1.4997V1.4997Z" fill="var(--fill-0, black)" fill-opacity="0.88"/>
</svg>
