<svg width="91" height="44" viewBox="0 0 91 44" fill="none" xmlns="http://www.w3.org/2000/svg">
<path d="M8.00069 30.8974C8.0129 30.6533 8.0129 30.4275 8.00069 30.22C7.98848 30.0491 7.96407 29.8905 7.92746 29.744C7.89084 29.5975 7.83592 29.5243 7.76268 29.5243C7.62842 29.5243 7.50027 29.683 7.37821 30.0003C7.25616 30.3054 7.06697 30.7876 6.81066 31.4467L3.3504 40.1064H0.915411L4.35736 31.4467C4.61367 30.7509 4.86388 30.1407 5.10799 29.6158C5.36431 29.091 5.63893 28.6577 5.93186 28.316C6.22479 27.962 6.54214 27.6996 6.88389 27.5287C7.23785 27.3456 7.64063 27.2541 8.09223 27.2541C8.73912 27.2541 9.26396 27.5653 9.66674 28.1878C10.0695 28.8103 10.2709 29.7135 10.2709 30.8974V36.4631C10.2587 36.7194 10.2587 36.9513 10.2709 37.1588C10.2831 37.3297 10.3014 37.4884 10.3258 37.6348C10.3502 37.7691 10.4052 37.8362 10.4906 37.8362C10.6005 37.8362 10.7042 37.7203 10.8018 37.4884C10.9117 37.2565 11.0582 36.9086 11.2412 36.4448H11.2229L13.2185 31.4467C13.4748 30.7509 13.7251 30.1407 13.9692 29.6158C14.2255 29.091 14.5001 28.6577 14.793 28.316C15.086 27.962 15.4033 27.6996 15.7451 27.5287C16.099 27.3456 16.5018 27.2541 16.9534 27.2541C17.6003 27.2541 18.1251 27.5653 18.5279 28.1878C18.9307 28.8103 19.1321 29.7135 19.1321 30.8974V40.1064H16.8619V30.8974C16.8741 30.6533 16.8741 30.4275 16.8619 30.22C16.8497 30.0491 16.8252 29.8905 16.7886 29.744C16.752 29.5975 16.6971 29.5243 16.6239 29.5243C16.4896 29.5243 16.3614 29.683 16.2394 30.0003C16.1173 30.3054 15.9281 30.7876 15.6718 31.4467L13.8776 35.9505C13.6213 36.6462 13.365 37.2565 13.1087 37.7813C12.8646 38.2939 12.5961 38.7272 12.3031 39.0812C12.0224 39.4229 11.7051 39.6793 11.3511 39.8501C11.0093 40.021 10.6127 40.1064 10.1611 40.1064C9.51417 40.1064 8.98933 39.7952 8.58655 39.1727C8.19598 38.538 8.00069 37.6348 8.00069 36.4631V30.8974ZM35.5743 40.1064H33.3041V31.0256C33.3041 30.5496 33.2552 30.1712 33.1576 29.8905C33.06 29.5975 32.8525 29.4511 32.5351 29.4511C32.2788 29.4511 32.0286 29.5426 31.7845 29.7257C31.5404 29.8966 31.3146 30.1041 31.1071 30.3482C30.8996 30.5923 30.7104 30.8425 30.5395 31.0988C30.3809 31.3551 30.2466 31.5687 30.1367 31.7396L24.7175 40.1064H22.0079L27.4271 31.7396C27.8909 31.0195 28.3242 30.3787 28.727 29.8172C29.142 29.2436 29.557 28.7615 29.972 28.3709C30.3992 27.9803 30.8508 27.6874 31.3268 27.4921C31.815 27.2846 32.3703 27.1808 32.9928 27.1808C33.7618 27.1808 34.3843 27.5165 34.8603 28.1878C35.3363 28.8591 35.5743 29.805 35.5743 31.0256V40.1064ZM46.7088 34.5407L49.6748 40.1064H47.1116L45.8483 37.6898C45.6775 37.3968 45.5005 37.0795 45.3174 36.7377C45.1465 36.396 44.9756 36.0847 44.8048 35.804C44.6339 35.5233 44.4569 35.2914 44.2738 35.1083C44.0907 34.913 43.9077 34.8154 43.7246 34.8154H42.2233C41.8083 34.8154 41.4544 34.9618 41.1614 35.2548C40.8685 35.5477 40.722 35.9017 40.722 36.3166V40.1064H38.4518V36.3166C38.4518 35.7918 38.5495 35.3036 38.7447 34.852C38.94 34.3882 39.2086 33.9854 39.5503 33.6436C39.8921 33.3019 40.2887 33.0334 40.7403 32.8381C41.2042 32.6428 41.6985 32.5452 42.2233 32.5452H45.2808C45.6103 32.5452 45.885 32.4719 46.1047 32.3255C46.3366 32.179 46.5074 31.9959 46.6173 31.7762C46.7271 31.5443 46.7821 31.3002 46.7821 31.0439C46.7821 30.7754 46.7271 30.5312 46.6173 30.3116C46.5074 30.0796 46.3366 29.8905 46.1047 29.744C45.885 29.5975 45.6103 29.5243 45.2808 29.5243H38.4518V27.2541H45.2808C45.9643 27.2541 46.5624 27.4005 47.075 27.6935C47.5998 27.9742 48.0209 28.3404 48.3383 28.792C48.6556 29.2436 48.8692 29.7501 48.979 30.3116C49.0889 30.873 49.0767 31.4222 48.9424 31.9593C48.8204 32.4963 48.5763 32.9968 48.2101 33.4606C47.8439 33.9244 47.3435 34.2844 46.7088 34.5407ZM59.4008 33.6803C59.6205 33.9244 59.8158 34.1807 59.9867 34.4492C60.1698 34.7177 60.3346 34.9862 60.481 35.2548C60.6275 35.5233 60.7557 35.7796 60.8655 36.0237C60.9876 36.2678 61.0974 36.4753 61.195 36.6462L63.0076 40.1064H60.4444L59.1811 37.6898C58.876 37.1405 58.6258 36.6889 58.4305 36.335C58.2474 35.9688 58.0827 35.682 57.9362 35.4745C57.7897 35.2548 57.6433 35.1022 57.4968 35.0168C57.3503 34.9191 57.1611 34.8581 56.9292 34.8337C56.7095 34.7971 56.4349 34.7849 56.1054 34.7971C55.7758 34.8093 55.3486 34.8154 54.8238 34.8154V40.1064H52.5536V27.2724H54.8238V32.5452C55.3486 32.5452 55.7758 32.5513 56.1054 32.5635C56.4471 32.5757 56.7278 32.5696 56.9475 32.5452C57.1672 32.5207 57.3503 32.4597 57.4968 32.3621C57.6433 32.2644 57.7897 32.1119 57.9362 31.9044C58.0827 31.6969 58.2474 31.4161 58.4305 31.0622C58.6258 30.696 58.876 30.2322 59.1811 29.6708L60.4444 27.2541H63.0076L61.195 30.7326C61.0974 30.9035 60.9876 31.111 60.8655 31.3551C60.7557 31.587 60.6275 31.8372 60.481 32.1058C60.3346 32.3743 60.1698 32.6489 59.9867 32.9296C59.8158 33.1981 59.6205 33.4484 59.4008 33.6803ZM70.8994 40.1064C70.0206 40.0942 69.1906 39.9234 68.4095 39.5938C67.6283 39.2521 66.9509 38.7944 66.3773 38.2207C65.8036 37.6348 65.3459 36.9513 65.0042 36.1702C64.6746 35.389 64.5098 34.5591 64.5098 33.6803C64.5098 32.7893 64.6746 31.9532 65.0042 31.172C65.3459 30.3909 65.8036 29.7135 66.3773 29.1398C66.9631 28.554 67.6466 28.0963 68.4278 27.7667C69.2089 27.425 70.045 27.2541 70.936 27.2541H75.568V29.5243H70.936C70.3624 29.5243 69.8192 29.6341 69.3066 29.8538C68.8062 30.0735 68.3668 30.3726 67.9884 30.7509C67.6222 31.1171 67.3293 31.5565 67.1096 32.0691C66.8899 32.5696 66.7801 33.1066 66.7801 33.6803C66.7801 34.2539 66.8899 34.7971 67.1096 35.3097C67.3293 35.8101 67.6222 36.2495 67.9884 36.6279C68.3668 36.994 68.8062 37.287 69.3066 37.5067C69.8192 37.7264 70.3624 37.8362 70.936 37.8362H75.568V40.1064H70.8994ZM73.8104 34.8154V32.5452H69.5446V34.8154H73.8104ZM82.6249 29.5243H78.4507V27.2541H89.0877V29.5243H84.8952V40.1064H82.6249V29.5243Z" fill="#001D66"/>
<rect x="1.00684" y="0.207031" width="20.5967" height="20.5967" rx="10.2984" fill="#1677FF"/>
<path d="M9.70213 6.32456L17.5605 9.66428C17.6435 9.69977 17.7127 9.76129 17.7577 9.83957C17.8027 9.91786 17.821 10.0087 17.8099 10.0983C17.7988 10.1879 17.7588 10.2714 17.696 10.3363C17.6332 10.4012 17.551 10.4439 17.4619 10.458L13.6166 11.046L13.5841 14.248C13.5835 14.3168 13.5659 14.3843 13.5328 14.4446C13.4997 14.5048 13.4523 14.5559 13.3946 14.5934C13.337 14.6308 13.2709 14.6534 13.2024 14.6591C13.1339 14.6648 13.0651 14.6534 13.002 14.626L5.14372 11.2863C5.06069 11.2508 4.99145 11.1892 4.94645 11.111C4.90145 11.0327 4.88314 10.9419 4.89427 10.8523C4.9054 10.7627 4.94538 10.6791 5.00816 10.6142C5.07095 10.5493 5.15313 10.5066 5.24232 10.4925L9.0922 9.90503L9.12321 6.70356C9.12413 6.63521 9.14188 6.56815 9.17488 6.50829C9.20788 6.44843 9.25511 6.39762 9.31241 6.36035C9.3697 6.32308 9.4353 6.3005 9.50339 6.2946C9.57149 6.2887 9.63999 6.29966 9.70284 6.32652L9.70213 6.32456Z" fill="white"/>
<path d="M45.7703 0.324204V3.95655H34.9611C34.4339 3.95655 33.9945 4.07373 33.643 4.30807C33.2914 4.54242 33.0278 4.84511 32.852 5.21616C32.6763 5.56768 32.5884 5.95825 32.5884 6.38788C32.5884 6.79799 32.6763 7.18856 32.852 7.55961C33.0278 7.91113 33.2914 8.20406 33.643 8.4384C33.9945 8.67275 34.4339 8.78992 34.9611 8.78992H41.6986C42.5383 8.78992 43.3195 8.94615 44.042 9.25861C44.7841 9.57107 45.4286 10.0007 45.9754 10.5475C46.5222 11.0943 46.9518 11.7388 47.2643 12.4809C47.5963 13.2034 47.7622 13.9846 47.7622 14.8243C47.7622 15.664 47.5963 16.455 47.2643 17.1971C46.9518 17.9196 46.5222 18.5543 45.9754 19.1011C45.4286 19.6479 44.7841 20.0873 44.042 20.4193C43.3195 20.7318 42.5383 20.888 41.6986 20.888H30.3328V17.2556H41.6986C42.2258 17.2556 42.6652 17.1385 43.0168 16.9041C43.3878 16.6698 43.6612 16.3768 43.837 16.0253C44.0127 15.6543 44.1006 15.2637 44.1006 14.8536C44.1006 14.424 44.0127 14.0334 43.837 13.6819C43.6612 13.3108 43.3878 13.0081 43.0168 12.7738C42.6652 12.5394 42.2258 12.4223 41.6986 12.4223H34.8147C33.9945 12.4027 33.2231 12.2367 32.5005 11.9243C31.7975 11.5923 31.1726 11.1529 30.6258 10.6061C30.0985 10.0593 29.6786 9.42461 29.3662 8.70204C29.0732 7.95995 28.9268 7.1788 28.9268 6.35859C28.9268 5.51885 29.083 4.7377 29.3954 4.01514C29.7079 3.27305 30.1375 2.6286 30.6843 2.08179C31.2312 1.53499 31.8658 1.10535 32.5884 0.792893C33.3305 0.480434 34.1214 0.324204 34.9611 0.324204H45.7703Z" fill="#1677FF"/>
<path d="M63.6432 20.888H60.0109V6.35859C60.0109 5.59697 59.9328 4.99158 59.7766 4.54242C59.6203 4.07373 59.2883 3.83938 58.7806 3.83938C58.3705 3.83938 57.9701 3.98585 57.5796 4.27878C57.189 4.55218 56.8277 4.88417 56.4957 5.27474C56.1637 5.66532 55.861 6.06566 55.5876 6.47576C55.3338 6.88587 55.1189 7.22762 54.9432 7.50102L48.4371 17.5459C47.0873 19.6299 44.7735 20.888 42.2905 20.888H41.6986L50.6078 7.50102C51.3499 6.34883 52.0432 5.32357 52.6876 4.42524C53.3516 3.50739 54.0156 2.73601 54.6795 2.11109C55.3631 1.48616 56.0856 1.01747 56.8472 0.705015C57.6284 0.373026 58.5169 0.207031 59.5129 0.207031C60.7432 0.207031 61.7392 0.744072 62.5008 1.81815C63.2624 2.89224 63.6432 4.40571 63.6432 6.35859V20.888Z" fill="#1677FF"/>
<path d="M71.3471 6.15354C71.3666 5.76296 71.3666 5.40168 71.3471 5.06969C71.3276 4.79629 71.2885 4.54242 71.2299 4.30807C71.1714 4.07373 71.0835 3.95655 70.9663 3.95655C70.7515 3.95655 70.5464 4.21043 70.3511 4.71817C70.1559 5.20639 69.8532 5.97778 69.4431 7.03233L63.9067 20.888H60.0107L65.5178 7.03233C65.9279 5.91919 66.3282 4.94276 66.7188 4.10302C67.1289 3.26328 67.5683 2.57001 68.037 2.02321C68.5057 1.45687 69.0134 1.037 69.5602 0.763601C70.1266 0.47067 70.771 0.324204 71.4936 0.324204C72.5286 0.324204 73.3683 0.822187 74.0128 1.81815C74.6572 2.81412 74.9795 4.25925 74.9795 6.15354V15.0587C74.9599 15.4688 74.9599 15.8398 74.9795 16.1718C74.999 16.4452 75.0283 16.6991 75.0673 16.9334C75.1064 17.1482 75.1943 17.2556 75.331 17.2556C75.5067 17.2556 75.6727 17.0701 75.829 16.6991C76.0047 16.328 76.2391 15.7715 76.532 15.0294H76.5027L79.6957 7.03233C80.1058 5.91919 80.5061 4.94276 80.8967 4.10302C81.3068 3.26328 81.7462 2.57001 82.2149 2.02321C82.6836 1.45687 83.1913 1.037 83.7381 0.763601C84.3044 0.47067 84.9489 0.324204 85.6715 0.324204C86.7065 0.324204 87.5462 0.822187 88.1907 1.81815C88.8351 2.81412 89.1573 4.25925 89.1573 6.15354V20.888H85.525V6.15354C85.5445 5.76296 85.5445 5.40168 85.525 5.06969C85.5055 4.79629 85.4664 4.54242 85.4078 4.30807C85.3492 4.07373 85.2613 3.95655 85.1442 3.95655C84.9294 3.95655 84.7243 4.21043 84.529 4.71817C84.3337 5.20639 84.031 5.97778 83.6209 7.03233L80.7502 14.2384C80.3401 15.3516 79.93 16.328 79.5199 17.1678C79.1293 17.988 78.6997 18.6812 78.231 19.2476C77.7818 19.7944 77.2741 20.2045 76.7078 20.4779C76.1609 20.7513 75.5263 20.888 74.8037 20.888C73.7687 20.888 72.9289 20.39 72.2845 19.394C71.6596 18.3785 71.3471 16.9334 71.3471 15.0587V6.15354Z" fill="#1677FF"/>
</svg>
