<svg width="24" height="24" viewBox="0 0 24 24" fill="none" xmlns="http://www.w3.org/2000/svg">
<path fill-rule="evenodd" clip-rule="evenodd" d="M18.6688 20.25C19.4349 20.25 20.0208 19.5671 19.9043 18.8099L18.5197 9.80993C18.4259 9.20014 17.9012 8.75 17.2842 8.75H6.7159C6.09894 8.75 5.57425 9.20014 5.48044 9.80993L4.09583 18.8099C3.97933 19.5671 4.56518 20.25 5.33129 20.25H18.6688ZM21.3869 18.5818C21.6431 20.2477 20.3543 21.75 18.6688 21.75H5.33129C3.64585 21.75 2.35699 20.2477 2.61327 18.5818L3.99788 9.58184C4.20427 8.24031 5.35858 7.25 6.7159 7.25H17.2842C18.6415 7.25 19.7959 8.2403 20.0022 9.58184L21.3869 18.5818Z" fill="black"/>
<path fill-rule="evenodd" clip-rule="evenodd" d="M12 3.75C11.3096 3.75 10.75 4.30964 10.75 5C10.75 5.41421 10.4142 5.75 10 5.75C9.58579 5.75 9.25 5.41421 9.25 5C9.25 3.48122 10.4812 2.25 12 2.25C13.5188 2.25 14.75 3.48122 14.75 5C14.75 5.41421 14.4142 5.75 14 5.75C13.5858 5.75 13.25 5.41421 13.25 5C13.25 4.30964 12.6904 3.75 12 3.75Z" fill="black"/>
</svg>
